<?xml version="1.0" encoding="utf-8"?>
<!-- Generator: Adobe Illustrator 22.0.1, SVG Export Plug-In . SVG Version: 6.00 Build 0)  -->
<svg version="1.1" xmlns="http://www.w3.org/2000/svg" xmlns:xlink="http://www.w3.org/1999/xlink" x="0px" y="0px"
	 viewBox="0 0 750 500" style="enable-background:new 0 0 750 500;" xml:space="preserve">
<style type="text/css">
	.st0{clip-path:url(#SVGID_2_);fill:#280068;}
	.st1{clip-path:url(#SVGID_2_);}
	.st2{fill:none;stroke:#7800FF;stroke-width:1.676;stroke-miterlimit:10;}
	.st3{fill:none;stroke:#7800FF;stroke-width:1.676;stroke-miterlimit:10;stroke-dasharray:9.9743,9.9743;}
	.st4{fill:none;stroke:#7800FF;stroke-width:1.676;stroke-miterlimit:10;stroke-dasharray:9.9744,9.9744;}
	.st5{fill:none;stroke:#7800FF;stroke-width:1.676;stroke-miterlimit:10;stroke-dasharray:10.5002,10.5002;}
	.st6{fill:none;stroke:#7800FF;stroke-width:1.676;stroke-miterlimit:10;stroke-dasharray:9.88,9.88;}
	.st7{fill:none;stroke:#7800FF;stroke-width:1.676;stroke-miterlimit:10;stroke-dasharray:10.5404,10.5404;}
	.st8{fill:none;stroke:#7800FF;stroke-width:1.676;stroke-miterlimit:10;stroke-dasharray:9.9742,9.9742;}
	.st9{fill:none;stroke:#7800FF;stroke-width:0.7997;stroke-linecap:round;stroke-miterlimit:10;stroke-dasharray:6.9664,6.9664;}
	.st10{clip-path:url(#SVGID_2_);fill:none;stroke:#7800FF;stroke-width:0.5631;stroke-linecap:round;stroke-miterlimit:10;}
	.st11{clip-path:url(#SVGID_2_);fill:none;stroke:#7800FF;stroke-width:0.4288;stroke-linecap:round;stroke-miterlimit:10;}
	.st12{fill:none;stroke:#FFD400;stroke-width:0.5;stroke-linecap:round;stroke-miterlimit:10;stroke-dasharray:7.6407,7.6407;}
	.st13{fill:none;stroke:#7800FF;stroke-linecap:round;stroke-miterlimit:10;}
	.st14{fill:none;stroke:#FFD400;stroke-width:2;stroke-linecap:round;stroke-miterlimit:10;}
	.st15{fill:none;stroke:#FFD400;stroke-width:2;stroke-linecap:round;stroke-miterlimit:10;stroke-dasharray:6.4928,6.4928;}
	.st16{fill:none;stroke:#FFD400;stroke-width:2;stroke-linecap:round;stroke-miterlimit:10;stroke-dasharray:6.5583,6.5583;}
	.st17{clip-path:url(#SVGID_2_);fill:#7800FF;}
	.st18{fill:none;stroke:#FFD400;stroke-width:1.5189;stroke-miterlimit:10;}
	.st19{fill:#1B89FB;}
	.st20{fill:#7800FF;}
	.st21{fill:#FFD400;}
	.st22{fill:none;stroke:#FFD400;stroke-width:4;stroke-miterlimit:10;}
	.st23{clip-path:url(#SVGID_2_);fill:none;stroke:#7800FF;stroke-width:3;stroke-miterlimit:10;}
	.st24{clip-path:url(#SVGID_2_);fill:#1B89FB;}
	.st25{clip-path:url(#SVGID_2_);fill:none;stroke:#FFD400;stroke-width:3;stroke-miterlimit:10;}
	.st26{clip-path:url(#SVGID_2_);fill:none;stroke:#FFFFFF;stroke-width:1.6873;stroke-miterlimit:10;}
	.st27{fill:none;stroke:#7800FF;stroke-width:1.2184;stroke-linecap:round;stroke-miterlimit:10;}
	.st28{fill:none;stroke:#3295FB;stroke-width:3.0251;stroke-linecap:round;stroke-miterlimit:10;stroke-dasharray:10.4252,10.4252;}
	.st29{fill:none;stroke:#72B6FD;stroke-width:2;stroke-miterlimit:10;}
	.st30{clip-path:url(#SVGID_2_);fill:none;stroke:#FFD400;stroke-width:2;stroke-miterlimit:10;}
	.st31{clip-path:url(#SVGID_2_);fill:#FFD400;}
	.st32{clip-path:url(#SVGID_2_);fill:none;stroke:#FFD400;stroke-width:2.3638;stroke-miterlimit:10;}
	.st33{clip-path:url(#SVGID_2_);fill:none;stroke:#1B89FB;stroke-width:2;stroke-miterlimit:10;}
	.st34{clip-path:url(#SVGID_2_);fill:none;stroke:#1B89FB;stroke-miterlimit:10;}
	.st35{clip-path:url(#SVGID_2_);fill:none;stroke:#3295FB;stroke-width:2.2418;stroke-miterlimit:10;}
	.st36{fill:none;stroke:#1B89FB;stroke-width:3;stroke-miterlimit:10;}
	.st37{fill:none;stroke:#FFD400;stroke-width:1.5;stroke-miterlimit:10;stroke-dasharray:7.8531,7.8531;}
	.st38{fill:none;stroke:#1B89FB;stroke-width:2;stroke-linecap:round;stroke-miterlimit:10;}
	.st39{fill:none;stroke:#1B89FB;stroke-width:2;stroke-linecap:round;stroke-miterlimit:10;stroke-dasharray:7.6885,7.6885;}
	.st40{fill:none;stroke:#1B89FB;stroke-width:3.6136;stroke-linecap:round;stroke-miterlimit:10;}
	.st41{fill:none;stroke:#7800FF;stroke-width:1.5496;stroke-linecap:round;stroke-miterlimit:10;}
	.st42{fill:none;stroke:#FFD400;stroke-width:2.6963;stroke-linecap:round;stroke-miterlimit:10;}
	.st43{fill:none;stroke:#FFD400;stroke-width:1.3659;stroke-linecap:round;stroke-miterlimit:10;}
	.st44{fill:none;stroke:#FFD400;stroke-width:1.6324;stroke-linecap:round;stroke-miterlimit:10;}
	.st45{fill:none;stroke:#FFD400;stroke-width:1.5;stroke-linecap:round;stroke-miterlimit:10;}
	.st46{fill:none;stroke:#FFD400;stroke-width:1.6943;stroke-linecap:round;stroke-miterlimit:10;}
	.st47{fill:none;stroke:#FFD400;stroke-width:1.8469;stroke-linecap:round;stroke-miterlimit:10;}
</style>
<g id="BACKGROUND">
</g>
<g id="OBJECTS">
	<g id="New_Symbol_3">
	</g>
	<g>
		<defs>
			<path id="SVGID_1_" d="M750,0v500H0V0H750z"/>
		</defs>
		<clipPath id="SVGID_2_">
			<use xlink:href="#SVGID_1_"  style="overflow:visible;"/>
		</clipPath>
		<rect class="st0" width="750" height="500"/>
		<g class="st1">
			<g>
				<g>
					<line class="st2" x1="202.5" y1="493.3" x2="199" y2="496.9"/>
					<line class="st3" x1="192" y1="503.9" x2="26.2" y2="669.7"/>
					<line class="st2" x1="22.7" y1="673.2" x2="19.1" y2="676.7"/>
				</g>
			</g>
			<g>
				<g>
					<line class="st2" x1="5.7" y1="663.3" x2="9.3" y2="659.8"/>
					<line class="st3" x1="16.3" y1="652.7" x2="182.1" y2="487"/>
					<line class="st2" x1="185.6" y1="483.4" x2="189.1" y2="479.9"/>
				</g>
			</g>
			<g>
				<g>
					<line class="st2" x1="-7.7" y1="649.9" x2="-4.1" y2="646.4"/>
					<line class="st3" x1="2.9" y1="639.3" x2="168.7" y2="473.6"/>
					<line class="st2" x1="172.2" y1="470" x2="175.7" y2="466.5"/>
				</g>
			</g>
			<g>
				<g>
					<line class="st2" x1="-21.1" y1="636.5" x2="-17.6" y2="632.9"/>
					<line class="st4" x1="-10.5" y1="625.9" x2="155.2" y2="460.1"/>
					<line class="st2" x1="158.8" y1="456.6" x2="162.3" y2="453.1"/>
				</g>
			</g>
			<g>
				<g>
					<line class="st2" x1="-34.5" y1="623.1" x2="-31" y2="619.5"/>
					<line class="st3" x1="-23.9" y1="612.5" x2="141.8" y2="446.7"/>
					<line class="st2" x1="145.4" y1="443.2" x2="148.9" y2="439.7"/>
				</g>
			</g>
			<g>
				<g>
					<line class="st2" x1="-47.9" y1="609.6" x2="-44.4" y2="606.1"/>
					<line class="st3" x1="-37.3" y1="599.1" x2="128.4" y2="433.3"/>
					<line class="st2" x1="131.9" y1="429.8" x2="135.5" y2="426.3"/>
				</g>
			</g>
			<g>
				<g>
					<line class="st2" x1="-61.3" y1="596.2" x2="-57.8" y2="592.7"/>
					<line class="st5" x1="-50.4" y1="585.3" x2="64.7" y2="470.2"/>
					<line class="st2" x1="68.4" y1="466.5" x2="72" y2="462.9"/>
				</g>
			</g>
			<g>
				<g>
					<line class="st2" x1="-74.7" y1="582.8" x2="-71.2" y2="579.3"/>
					<line class="st6" x1="-64.2" y1="572.3" x2="44.1" y2="464"/>
					<line class="st2" x1="47.6" y1="460.5" x2="51.1" y2="457"/>
				</g>
			</g>
			<g>
				<g>
					<line class="st2" x1="-88.2" y1="569.4" x2="-84.6" y2="565.9"/>
					<line class="st7" x1="-77.2" y1="558.4" x2="38.4" y2="442.9"/>
					<line class="st2" x1="42.1" y1="439.2" x2="45.6" y2="435.6"/>
				</g>
			</g>
			<g>
				<g>
					<line class="st2" x1="-101.6" y1="556" x2="-98" y2="552.5"/>
					<line class="st4" x1="-91" y1="545.4" x2="74.8" y2="379.7"/>
					<line class="st2" x1="78.3" y1="376.1" x2="81.8" y2="372.6"/>
				</g>
			</g>
			<g>
				<g>
					<line class="st2" x1="-115" y1="542.6" x2="-111.4" y2="539"/>
					<line class="st8" x1="-104.4" y1="532" x2="61.4" y2="366.3"/>
					<line class="st2" x1="64.9" y1="362.7" x2="68.4" y2="359.2"/>
				</g>
			</g>
			<g>
				<g>
					<line class="st2" x1="-128.4" y1="529.2" x2="-124.9" y2="525.6"/>
					<line class="st8" x1="-117.8" y1="518.6" x2="47.9" y2="352.8"/>
					<line class="st2" x1="51.5" y1="349.3" x2="55" y2="345.8"/>
				</g>
			</g>
			<g>
				<g>
					<line class="st2" x1="-141.8" y1="515.8" x2="-138.3" y2="512.2"/>
					<line class="st8" x1="-131.2" y1="505.2" x2="34.5" y2="339.4"/>
					<line class="st2" x1="38.1" y1="335.9" x2="41.6" y2="332.4"/>
				</g>
			</g>
			<g>
				<g>
					<line class="st2" x1="-155.2" y1="502.3" x2="-151.7" y2="498.8"/>
					<line class="st8" x1="-144.6" y1="491.8" x2="21.1" y2="326"/>
					<line class="st2" x1="24.6" y1="322.5" x2="28.2" y2="319"/>
				</g>
			</g>
			<g>
				<g>
					<line class="st2" x1="-168.6" y1="488.9" x2="-165.1" y2="485.4"/>
					<line class="st8" x1="-158" y1="478.3" x2="7.7" y2="312.6"/>
					<line class="st2" x1="11.2" y1="309.1" x2="14.8" y2="305.5"/>
				</g>
			</g>
		</g>
		<g class="st1">
			
				<ellipse transform="matrix(0.2608 -0.9654 0.9654 0.2608 -31.9913 760.3131)" class="st9" cx="480.5" cy="401" rx="153" ry="153"/>
		</g>
		
			<ellipse transform="matrix(0.7071 -0.7071 0.7071 0.7071 188.938 514.9724)" class="st10" cx="716.1" cy="29.4" rx="215.5" ry="215.5"/>
		<circle class="st11" cx="716.1" cy="29.4" r="92.4"/>
		<g class="st1">
			
				<ellipse transform="matrix(0.7071 -0.7071 0.7071 0.7071 -43.177 110.7652)" class="st12" cx="112.1" cy="107.5" rx="143.5" ry="143.5"/>
		</g>
		<g class="st1">
			<g>
				<line class="st13" x1="-55" y1="75.9" x2="-46.2" y2="84.7"/>
				<line class="st13" x1="-55" y1="84.7" x2="-46.2" y2="75.9"/>
			</g>
			<g>
				<line class="st13" x1="-38.3" y1="59.2" x2="-29.5" y2="68"/>
				<line class="st13" x1="-38.3" y1="68" x2="-29.5" y2="59.2"/>
			</g>
			<g>
				<line class="st13" x1="-21.6" y1="42.6" x2="-12.9" y2="51.3"/>
				<line class="st13" x1="-21.6" y1="51.3" x2="-12.9" y2="42.6"/>
			</g>
			<g>
				<line class="st13" x1="-4.9" y1="25.9" x2="3.8" y2="34.6"/>
				<line class="st13" x1="-4.9" y1="34.6" x2="3.8" y2="25.9"/>
			</g>
			<g>
				<line class="st13" x1="11.8" y1="9.2" x2="20.5" y2="17.9"/>
				<line class="st13" x1="11.8" y1="17.9" x2="20.5" y2="9.2"/>
			</g>
			<g>
				<line class="st13" x1="28.4" y1="-7.5" x2="37.2" y2="1.3"/>
				<line class="st13" x1="28.4" y1="1.3" x2="37.2" y2="-7.5"/>
			</g>
			<g>
				<line class="st13" x1="45.1" y1="-24.2" x2="53.9" y2="-15.4"/>
				<line class="st13" x1="45.1" y1="-15.4" x2="53.9" y2="-24.2"/>
			</g>
			<g>
				<line class="st13" x1="61.8" y1="-40.9" x2="70.6" y2="-32.1"/>
				<line class="st13" x1="61.8" y1="-32.1" x2="70.6" y2="-40.9"/>
			</g>
			<g>
				<line class="st13" x1="-38.6" y1="92.3" x2="-29.8" y2="101.1"/>
				<line class="st13" x1="-38.6" y1="101.1" x2="-29.8" y2="92.3"/>
			</g>
			<g>
				<line class="st13" x1="-21.9" y1="75.7" x2="-13.1" y2="84.4"/>
				<line class="st13" x1="-21.9" y1="84.4" x2="-13.1" y2="75.7"/>
			</g>
			<g>
				<line class="st13" x1="-5.2" y1="59" x2="3.5" y2="67.7"/>
				<line class="st13" x1="-5.2" y1="67.7" x2="3.5" y2="59"/>
			</g>
			<g>
				<line class="st13" x1="11.5" y1="42.3" x2="20.2" y2="51"/>
				<line class="st13" x1="11.5" y1="51" x2="20.2" y2="42.3"/>
			</g>
			<g>
				<line class="st13" x1="28.2" y1="25.6" x2="36.9" y2="34.4"/>
				<line class="st13" x1="28.2" y1="34.4" x2="36.9" y2="25.6"/>
			</g>
			<g>
				<line class="st13" x1="44.8" y1="8.9" x2="53.6" y2="17.7"/>
				<line class="st13" x1="44.8" y1="17.7" x2="53.6" y2="8.9"/>
			</g>
			<g>
				<line class="st13" x1="61.5" y1="-7.8" x2="70.3" y2="1"/>
				<line class="st13" x1="61.5" y1="1" x2="70.3" y2="-7.8"/>
			</g>
			<g>
				<line class="st13" x1="78.2" y1="-24.5" x2="87" y2="-15.7"/>
				<line class="st13" x1="78.2" y1="-15.7" x2="87" y2="-24.5"/>
			</g>
			<g>
				<line class="st13" x1="-22.2" y1="108.7" x2="-13.4" y2="117.5"/>
				<line class="st13" x1="-22.2" y1="117.5" x2="-13.4" y2="108.7"/>
			</g>
			<g>
				<line class="st13" x1="-5.5" y1="92.1" x2="3.3" y2="100.8"/>
				<line class="st13" x1="-5.5" y1="100.8" x2="3.3" y2="92.1"/>
			</g>
			<g>
				<line class="st13" x1="11.2" y1="75.4" x2="20" y2="84.1"/>
				<line class="st13" x1="11.2" y1="84.1" x2="20" y2="75.4"/>
			</g>
			<g>
				<line class="st13" x1="27.9" y1="58.7" x2="36.6" y2="67.5"/>
				<line class="st13" x1="27.9" y1="67.4" x2="36.6" y2="58.7"/>
			</g>
			<g>
				<line class="st13" x1="44.6" y1="42" x2="53.3" y2="50.8"/>
				<line class="st13" x1="44.6" y1="50.8" x2="53.3" y2="42"/>
			</g>
			<g>
				<line class="st13" x1="61.3" y1="25.3" x2="70" y2="34.1"/>
				<line class="st13" x1="61.3" y1="34.1" x2="70" y2="25.3"/>
			</g>
			<g>
				<line class="st13" x1="77.9" y1="8.6" x2="86.7" y2="17.4"/>
				<line class="st13" x1="77.9" y1="17.4" x2="86.7" y2="8.6"/>
			</g>
			<g>
				<line class="st13" x1="94.6" y1="-8.1" x2="103.4" y2="0.7"/>
				<line class="st13" x1="94.6" y1="0.7" x2="103.4" y2="-8.1"/>
			</g>
			<g>
				<line class="st13" x1="-5.8" y1="125.2" x2="3" y2="133.9"/>
				<line class="st13" x1="-5.8" y1="133.9" x2="3" y2="125.2"/>
			</g>
			<g>
				<line class="st13" x1="10.9" y1="108.5" x2="19.7" y2="117.2"/>
				<line class="st13" x1="10.9" y1="117.2" x2="19.7" y2="108.5"/>
			</g>
			<g>
				<line class="st13" x1="27.6" y1="91.8" x2="36.4" y2="100.5"/>
				<line class="st13" x1="27.6" y1="100.5" x2="36.4" y2="91.8"/>
			</g>
			<g>
				<line class="st13" x1="44.3" y1="75.1" x2="53.1" y2="83.9"/>
				<line class="st13" x1="44.3" y1="83.9" x2="53.1" y2="75.1"/>
			</g>
			<g>
				<line class="st13" x1="61" y1="58.4" x2="69.7" y2="67.2"/>
				<line class="st13" x1="61" y1="67.2" x2="69.7" y2="58.4"/>
			</g>
			<g>
				<line class="st13" x1="77.7" y1="41.7" x2="86.4" y2="50.5"/>
				<line class="st13" x1="77.7" y1="50.5" x2="86.4" y2="41.7"/>
			</g>
			<g>
				<line class="st13" x1="94.3" y1="25" x2="103.1" y2="33.8"/>
				<line class="st13" x1="94.3" y1="33.8" x2="103.1" y2="25"/>
			</g>
			<g>
				<line class="st13" x1="111" y1="8.4" x2="119.8" y2="17.1"/>
				<line class="st13" x1="111" y1="17.1" x2="119.8" y2="8.4"/>
			</g>
			<g>
				<line class="st13" x1="10.6" y1="141.6" x2="19.4" y2="150.3"/>
				<line class="st13" x1="10.6" y1="150.3" x2="19.4" y2="141.6"/>
			</g>
			<g>
				<line class="st13" x1="27.3" y1="124.9" x2="36.1" y2="133.6"/>
				<line class="st13" x1="27.3" y1="133.6" x2="36.1" y2="124.9"/>
			</g>
			<g>
				<line class="st13" x1="44" y1="108.2" x2="52.8" y2="117"/>
				<line class="st13" x1="44" y1="117" x2="52.8" y2="108.2"/>
			</g>
			<g>
				<line class="st13" x1="60.7" y1="91.5" x2="69.5" y2="100.3"/>
				<line class="st13" x1="60.7" y1="100.3" x2="69.5" y2="91.5"/>
			</g>
			<g>
				<line class="st13" x1="77.4" y1="74.8" x2="86.1" y2="83.6"/>
				<line class="st13" x1="77.4" y1="83.6" x2="86.1" y2="74.8"/>
			</g>
			<g>
				<line class="st13" x1="94.1" y1="58.1" x2="102.8" y2="66.9"/>
				<line class="st13" x1="94.1" y1="66.9" x2="102.8" y2="58.1"/>
			</g>
			<g>
				<line class="st13" x1="110.8" y1="41.5" x2="119.5" y2="50.2"/>
				<line class="st13" x1="110.8" y1="50.2" x2="119.5" y2="41.4"/>
			</g>
			<g>
				<line class="st13" x1="127.4" y1="24.8" x2="136.2" y2="33.5"/>
				<line class="st13" x1="127.4" y1="33.5" x2="136.2" y2="24.8"/>
			</g>
			<g>
				<line class="st13" x1="27.1" y1="158" x2="35.8" y2="166.7"/>
				<line class="st13" x1="27.1" y1="166.7" x2="35.8" y2="158"/>
			</g>
			<g>
				<line class="st13" x1="43.7" y1="141.3" x2="52.5" y2="150"/>
				<line class="st13" x1="43.7" y1="150" x2="52.5" y2="141.3"/>
			</g>
			<g>
				<line class="st13" x1="60.4" y1="124.6" x2="69.2" y2="133.4"/>
				<line class="st13" x1="60.4" y1="133.4" x2="69.2" y2="124.6"/>
			</g>
			<g>
				<line class="st13" x1="77.1" y1="107.9" x2="85.9" y2="116.7"/>
				<line class="st13" x1="77.1" y1="116.7" x2="85.9" y2="107.9"/>
			</g>
			<g>
				<line class="st13" x1="93.8" y1="91.2" x2="102.6" y2="100"/>
				<line class="st13" x1="93.8" y1="100" x2="102.6" y2="91.2"/>
			</g>
			<g>
				<line class="st13" x1="110.5" y1="74.5" x2="119.2" y2="83.3"/>
				<line class="st13" x1="110.5" y1="83.3" x2="119.2" y2="74.5"/>
			</g>
			<g>
				<line class="st13" x1="127.2" y1="57.9" x2="135.9" y2="66.6"/>
				<line class="st13" x1="127.2" y1="66.6" x2="135.9" y2="57.9"/>
			</g>
			<g>
				<line class="st13" x1="143.9" y1="41.2" x2="152.6" y2="49.9"/>
				<line class="st13" x1="143.9" y1="49.9" x2="152.6" y2="41.2"/>
			</g>
		</g>
		<g class="st1">
			<g>
				<polyline class="st14" points="538.4,42.8 538.4,39.4 540.8,41.8 				"/>
				<line class="st15" x1="545.3" y1="46.4" x2="625.7" y2="126.7"/>
				<polyline class="st14" points="628,129 630.4,131.4 627,131.4 				"/>
				<line class="st16" x1="620.4" y1="131.4" x2="545" y2="131.4"/>
				<polyline class="st14" points="541.7,131.4 538.4,131.4 538.4,128.1 				"/>
				<line class="st16" x1="538.4" y1="121.5" x2="538.4" y2="46.1"/>
			</g>
		</g>
		<polygon class="st17" points="362.8,267.4 362.8,218.4 387.2,242.9 		"/>
		<g class="st1">
			<line class="st18" x1="656" y1="714.8" x2="489.9" y2="548.6"/>
			<line class="st18" x1="502" y1="536.5" x2="668.2" y2="702.7"/>
			<line class="st18" x1="514.2" y1="524.3" x2="680.3" y2="690.5"/>
			<line class="st18" x1="526.3" y1="512.2" x2="692.5" y2="678.4"/>
			<line class="st18" x1="538.5" y1="500" x2="704.6" y2="666.2"/>
			<line class="st18" x1="550.6" y1="487.9" x2="716.8" y2="654"/>
			<line class="st18" x1="562.8" y1="475.7" x2="729" y2="641.9"/>
			<line class="st18" x1="574.9" y1="463.6" x2="741.1" y2="629.7"/>
			<line class="st18" x1="587.1" y1="451.4" x2="753.3" y2="617.6"/>
			<line class="st18" x1="599.3" y1="439.3" x2="765.4" y2="605.4"/>
			<line class="st18" x1="611.4" y1="427.1" x2="777.6" y2="593.3"/>
			<line class="st18" x1="623.6" y1="415" x2="789.7" y2="581.1"/>
			<line class="st18" x1="635.7" y1="402.8" x2="801.9" y2="569"/>
			<line class="st18" x1="647.9" y1="390.7" x2="814" y2="556.8"/>
			<line class="st18" x1="660" y1="378.5" x2="826.2" y2="544.7"/>
		</g>
		<g class="st1">
			<g>
				<path class="st19" d="M38.7,254.6c-4.3,0-8.5-1.6-11.8-4.9l-116.9-117c-6.5-6.5-6.5-17.1,0-23.6c6.5-6.5,17.1-6.5,23.6,0
					L50.5,226c6.5,6.5,6.5,17.1,0,23.6C47.2,252.9,42.9,254.6,38.7,254.6z"/>
			</g>
		</g>
		<g class="st1">
			<path class="st20" d="M304.9,194c-0.2,0-0.4-0.1-0.6-0.3L198.6,88.1c-0.3-0.3-0.3-0.9,0-1.2c0.3-0.3,0.9-0.3,1.2,0l105.7,105.7
				c0.3,0.3,0.3,0.9,0,1.2C305.4,194,305.1,194,304.9,194z"/>
		</g>
		<g class="st1">
			<path class="st21" d="M152.3,223c0,0.3-0.1,0.5-0.3,0.7L29.2,346.5c-0.4,0.4-1,0.4-1.4,0c-0.4-0.4-0.4-1,0-1.4l122.8-122.8
				c0.4-0.4,1-0.4,1.4,0C152.2,222.4,152.3,222.7,152.3,223z"/>
		</g>
		<g class="st1">
			<path class="st19" d="M700.6,101.5c0,0.2-0.1,0.3-0.2,0.5l-39.8,39.8c-0.3,0.3-0.7,0.3-0.9,0c-0.3-0.3-0.3-0.7,0-0.9l39.8-39.8
				c0.3-0.3,0.7-0.3,0.9,0C700.6,101.2,700.6,101.3,700.6,101.5z"/>
		</g>
		<g class="st1">
			<path class="st19" d="M279,526.6c-0.6,0-1.2-0.2-1.7-0.7L101.2,349.8c-0.9-0.9-0.9-2.4,0-3.3c0.9-0.9,2.4-0.9,3.3,0l176.1,176.1
				c0.9,0.9,0.9,2.4,0,3.3C280.2,526.4,279.6,526.6,279,526.6z"/>
		</g>
		<g class="st1">
			<g>
				<path class="st22" d="M109.3,133.1c-7.5,0-15-2.9-20.8-8.6L-117.1-81.2c-11.5-11.5-11.5-30.1,0-41.5c11.5-11.5,30.1-11.5,41.5,0
					L130.1,82.9c11.5,11.5,11.5,30.1,0,41.5C124.3,130.2,116.8,133.1,109.3,133.1z"/>
			</g>
		</g>
		<g class="st1">
			<g>
				<path class="st19" d="M466.2,53.6c-4.1,0-8.1-1.6-11.3-4.7L343.5-62.5c-6.2-6.2-6.2-16.3,0-22.5c6.2-6.2,16.3-6.2,22.5,0
					L477.4,26.4c6.2,6.2,6.2,16.3,0,22.5C474.3,52,470.3,53.6,466.2,53.6z"/>
			</g>
		</g>
		<path class="st23" d="M326.4,490.7l214.4,214.4l43.3-43.3L369.7,447.4c-6-6-13.8-9-21.7-9c-7.8,0-15.7,3-21.7,9
			C314.5,459.3,314.5,478.7,326.4,490.7z"/>
		<circle class="st24" cx="375" cy="73.3" r="5.4"/>
		<path class="st24" d="M465.5,475.6c0,3-2.4,5.4-5.4,5.4c-3,0-5.4-2.4-5.4-5.4c0-3,2.4-5.4,5.4-5.4
			C463,470.1,465.5,472.6,465.5,475.6z"/>
		<path class="st25" d="M112.1,420.3c0,13.4-10.9,24.2-24.2,24.2c-13.4,0-24.2-10.9-24.2-24.2c0-13.4,10.9-24.2,24.2-24.2
			C101.3,396,112.1,406.9,112.1,420.3z"/>
		<path class="st26" d="M369.5,2.7c0,17.6-14.3,31.9-31.9,31.9c-17.6,0-31.9-14.3-31.9-31.9c0-17.6,14.3-31.9,31.9-31.9
			C355.3-29.2,369.5-14.9,369.5,2.7z"/>
		<g class="st1">
			<path class="st27" d="M254.9,343.1c0,12.9-10.5,23.4-23.4,23.4c-12.9,0-23.4-10.5-23.4-23.4c0-12.9,10.5-23.4,23.4-23.4
				C244.5,319.7,254.9,330.2,254.9,343.1z"/>
			<g>
				<circle class="st28" cx="231.6" cy="343.1" r="49.8"/>
			</g>
		</g>
		<g class="st1">
			<g>
				<path class="st29" d="M237.5,245.2c-2.8,0-5.7-1.1-7.8-3.2l-77.4-77.4c-4.3-4.3-4.3-11.3,0-15.6c4.3-4.3,11.3-4.3,15.6,0
					l77.4,77.4c4.3,4.3,4.3,11.3,0,15.6C243.2,244.1,240.4,245.2,237.5,245.2z"/>
			</g>
		</g>
		
			<rect x="283.8" y="256.6" transform="matrix(0.7071 -0.7071 0.7071 0.7071 -102.9701 286.9973)" class="st30" width="22.4" height="22.4"/>
		
			<rect x="476.3" y="96.9" transform="matrix(0.7071 -0.7071 0.7071 0.7071 68.4133 371.3609)" class="st31" width="12.3" height="12.3"/>
		
			<rect x="598.1" y="346.5" transform="matrix(0.7071 -0.7071 0.7071 0.7071 -72.4025 530.5727)" class="st24" width="12.3" height="12.3"/>
		
			<rect x="148" y="275.4" transform="matrix(0.7072 -0.7071 0.7071 0.7072 -154.5766 192.9328)" class="st31" width="15.3" height="15.3"/>
		<path class="st32" d="M766.3,29.4c0,27.7-22.5,50.2-50.2,50.2c-27.7,0-50.2-22.5-50.2-50.2c0-27.7,22.5-50.2,50.2-50.2
			C743.8-20.8,766.3,1.7,766.3,29.4z"/>
		
			<ellipse transform="matrix(2.627720e-02 -0.9997 0.9997 2.627720e-02 555.7487 643.6204)" class="st33" cx="608.3" cy="36.5" rx="7.5" ry="7.5"/>
		<path class="st34" d="M649.6,83.3c0,2.1-1.7,3.8-3.8,3.8c-2.1,0-3.8-1.7-3.8-3.8c0-2.1,1.7-3.8,3.8-3.8
			C647.9,79.5,649.6,81.2,649.6,83.3z"/>
		<path class="st35" d="M629.9,257.9c0,11.9-9.7,21.6-21.6,21.6c-11.9,0-21.6-9.7-21.6-21.6c0-11.9,9.7-21.6,21.6-21.6
			C620.2,236.3,629.9,245.9,629.9,257.9z"/>
		<g class="st1">
			<g>
				<g>
					<path class="st36" d="M498.3,291.6c-3.4,0-6.8-1.3-9.4-3.9l-93.2-93.2c-5.2-5.2-5.2-13.6,0-18.8c5.2-5.2,13.6-5.2,18.8,0
						l93.2,93.2c5.2,5.2,5.2,13.6,0,18.8C505.1,290.3,501.7,291.6,498.3,291.6z"/>
				</g>
			</g>
			<path class="st19" d="M503,278.4c0,2.5-2.1,4.6-4.6,4.6c-2.5,0-4.6-2.1-4.6-4.6c0-2.5,2.1-4.6,4.6-4.6
				C501,273.8,503,275.9,503,278.4z"/>
		</g>
		<g class="st1">
			
				<ellipse transform="matrix(0.9999 -1.249203e-02 1.249203e-02 0.9999 -4.86 6.0206)" class="st21" cx="479.5" cy="392" rx="14.5" ry="14.5"/>
			<g>
				<path class="st37" d="M539.5,392c0,33.1-26.9,60-60,60c-33.1,0-60-26.9-60-60c0-33.1,26.9-60,60-60
					C512.6,332,539.5,358.9,539.5,392z"/>
			</g>
		</g>
		<g class="st1">
			<path class="st14" d="M250.3,446.3c7.3-7.3,14.2-0.3,21.5-7.5c7.3-7.3,0.3-14.2,7.6-21.5c7.3-7.3,14.2-0.3,21.5-7.5
				c7.3-7.3,0.3-14.2,7.5-21.5c7.3-7.3,14.2-0.3,21.5-7.5c7.3-7.3,0.3-14.2,7.6-21.5c7.3-7.3,14.2-0.3,21.5-7.5
				c7.3-7.3,0.3-14.2,7.6-21.5c7.3-7.3,14.2-0.3,21.5-7.5c7.3-7.3,0.3-14.2,7.6-21.5c7.3-7.3,14.2-0.3,21.5-7.6"/>
		</g>
		<g class="st1">
			<g>
				<path class="st38" d="M167.9-11.7c1.1,1.1,1.7,2.1,2.2,3.1"/>
				<path class="st39" d="M171.1-1c0.1,2.4,0.7,4.8,3.1,7.2c6,6,11.9,0.2,17.9,6.3c6,6,0.2,11.9,6.3,17.9c6,6,11.9,0.2,17.9,6.3
					c6,6,0.2,11.9,6.3,17.9c6,6,11.9,0.2,17.9,6.3c6,6,0.2,11.9,6.3,17.9c6.1,6.1,11.9,0.2,17.9,6.3c6,6,0.2,11.9,6.3,17.9
					c6.1,6.1,11.9,0.2,17.9,6.3c3.7,3.7,3,7.4,3.2,11"/>
				<path class="st38" d="M293,124c0.5,1,1.2,2.1,2.2,3.1"/>
			</g>
		</g>
		<g class="st1">
			<path class="st38" d="M180.2-59c6,6,0.2,11.9,6.3,17.9c6,6,11.9,0.2,17.9,6.3c6,6,0.2,11.9,6.3,17.9c6,6,11.9,0.2,17.9,6.3
				c6,6,0.2,11.9,6.3,17.9c6,6,11.9,0.2,17.9,6.3c6,6,0.2,11.9,6.3,17.9c6.1,6.1,11.9,0.2,17.9,6.3c6,6,0.2,11.9,6.3,17.9
				c6.1,6.1,11.9,0.2,17.9,6.3c6.1,6.1,0.2,11.9,6.3,17.9"/>
		</g>
		<g class="st1">
			<path class="st40" d="M664.2,298.5c9,9-1.7,19.7,7.3,28.7c9,9,19.7-1.7,28.7,7.3c9,9-1.7,19.7,7.3,28.7c9,9,19.7-1.7,28.7,7.3
				c9,9-1.7,19.7,7.3,28.7c9,9,19.7-1.7,28.7,7.3c9,9-1.7,19.7,7.3,28.7c9,9,19.7-1.7,28.7,7.3c9,9-1.7,19.7,7.3,28.7
				c9,9,19.7-1.7,28.7,7.3c9,9-1.7,19.7,7.3,28.7"/>
		</g>
		<path class="st17" d="M962.1,546.4"/>
		<g class="st1">
			<g>
				<line class="st41" x1="629.2" y1="200.9" x2="639.9" y2="211.6"/>
				<line class="st41" x1="629.2" y1="211.6" x2="639.9" y2="200.9"/>
			</g>
			<g>
				<line class="st41" x1="649.6" y1="180.5" x2="660.3" y2="191.2"/>
				<line class="st41" x1="649.6" y1="191.2" x2="660.3" y2="180.5"/>
			</g>
			<g>
				<line class="st41" x1="670" y1="160.1" x2="680.7" y2="170.8"/>
				<line class="st41" x1="670" y1="170.8" x2="680.7" y2="160.1"/>
			</g>
			<g>
				<line class="st41" x1="690.4" y1="139.7" x2="701.1" y2="150.4"/>
				<line class="st41" x1="690.4" y1="150.4" x2="701.1" y2="139.7"/>
			</g>
			<g>
				<line class="st41" x1="710.8" y1="119.3" x2="721.5" y2="130"/>
				<line class="st41" x1="710.8" y1="130" x2="721.5" y2="119.3"/>
			</g>
			<g>
				<line class="st41" x1="731.2" y1="98.9" x2="741.9" y2="109.6"/>
				<line class="st41" x1="731.2" y1="109.6" x2="741.9" y2="98.8"/>
			</g>
			<g>
				<line class="st41" x1="751.6" y1="78.4" x2="762.3" y2="89.2"/>
				<line class="st41" x1="751.6" y1="89.2" x2="762.3" y2="78.4"/>
			</g>
			<g>
				<line class="st41" x1="772" y1="58" x2="782.7" y2="68.8"/>
				<line class="st41" x1="772" y1="68.8" x2="782.7" y2="58"/>
			</g>
			<g>
				<line class="st41" x1="649.3" y1="220.9" x2="660" y2="231.6"/>
				<line class="st41" x1="649.3" y1="231.6" x2="660" y2="220.9"/>
			</g>
			<g>
				<line class="st41" x1="669.7" y1="200.5" x2="680.4" y2="211.2"/>
				<line class="st41" x1="669.7" y1="211.2" x2="680.4" y2="200.5"/>
			</g>
			<g>
				<line class="st41" x1="690.1" y1="180.1" x2="700.8" y2="190.8"/>
				<line class="st41" x1="690.1" y1="190.8" x2="700.8" y2="180.1"/>
			</g>
			<g>
				<line class="st41" x1="710.5" y1="159.7" x2="721.2" y2="170.4"/>
				<line class="st41" x1="710.5" y1="170.4" x2="721.2" y2="159.7"/>
			</g>
			<g>
				<line class="st41" x1="730.9" y1="139.3" x2="741.6" y2="150"/>
				<line class="st41" x1="730.9" y1="150" x2="741.6" y2="139.3"/>
			</g>
			<g>
				<line class="st41" x1="751.3" y1="118.9" x2="762" y2="129.6"/>
				<line class="st41" x1="751.3" y1="129.6" x2="762" y2="118.9"/>
			</g>
			<g>
				<line class="st41" x1="771.7" y1="98.5" x2="782.4" y2="109.2"/>
				<line class="st41" x1="771.7" y1="109.2" x2="782.4" y2="98.5"/>
			</g>
			<g>
				<line class="st41" x1="792.1" y1="78.1" x2="802.8" y2="88.8"/>
				<line class="st41" x1="792.1" y1="88.8" x2="802.8" y2="78.1"/>
			</g>
			<g>
				<line class="st41" x1="669.3" y1="241" x2="680.1" y2="251.7"/>
				<line class="st41" x1="669.3" y1="251.7" x2="680.1" y2="241"/>
			</g>
			<g>
				<line class="st41" x1="689.7" y1="220.6" x2="700.5" y2="231.3"/>
				<line class="st41" x1="689.7" y1="231.3" x2="700.5" y2="220.6"/>
			</g>
			<g>
				<line class="st41" x1="710.1" y1="200.2" x2="720.9" y2="210.9"/>
				<line class="st41" x1="710.1" y1="210.9" x2="720.9" y2="200.2"/>
			</g>
			<g>
				<line class="st41" x1="730.5" y1="179.8" x2="741.3" y2="190.5"/>
				<line class="st41" x1="730.6" y1="190.5" x2="741.3" y2="179.8"/>
			</g>
			<g>
				<line class="st41" x1="751" y1="159.4" x2="761.7" y2="170.1"/>
				<line class="st41" x1="751" y1="170.1" x2="761.7" y2="159.4"/>
			</g>
			<g>
				<line class="st41" x1="771.4" y1="139" x2="782.1" y2="149.7"/>
				<line class="st41" x1="771.4" y1="149.7" x2="782.1" y2="139"/>
			</g>
			<g>
				<line class="st41" x1="791.8" y1="118.6" x2="802.5" y2="129.3"/>
				<line class="st41" x1="791.8" y1="129.3" x2="802.5" y2="118.6"/>
			</g>
			<g>
				<line class="st41" x1="812.2" y1="98.2" x2="822.9" y2="108.9"/>
				<line class="st41" x1="812.2" y1="108.9" x2="822.9" y2="98.2"/>
			</g>
			<g>
				<line class="st41" x1="689.4" y1="261.1" x2="700.1" y2="271.8"/>
				<line class="st41" x1="689.4" y1="271.8" x2="700.1" y2="261.1"/>
			</g>
			<g>
				<line class="st41" x1="709.8" y1="240.7" x2="720.5" y2="251.4"/>
				<line class="st41" x1="709.8" y1="251.4" x2="720.5" y2="240.6"/>
			</g>
			<g>
				<line class="st41" x1="730.2" y1="220.2" x2="740.9" y2="231"/>
				<line class="st41" x1="730.2" y1="231" x2="740.9" y2="220.2"/>
			</g>
			<g>
				<line class="st41" x1="750.6" y1="199.8" x2="761.3" y2="210.6"/>
				<line class="st41" x1="750.6" y1="210.6" x2="761.3" y2="199.8"/>
			</g>
			<g>
				<line class="st41" x1="771" y1="179.4" x2="781.7" y2="190.2"/>
				<line class="st41" x1="771" y1="190.2" x2="781.7" y2="179.4"/>
			</g>
			<g>
				<line class="st41" x1="791.4" y1="159" x2="802.1" y2="169.8"/>
				<line class="st41" x1="791.4" y1="169.7" x2="802.1" y2="159"/>
			</g>
			<g>
				<line class="st41" x1="811.8" y1="138.6" x2="822.5" y2="149.3"/>
				<line class="st41" x1="811.8" y1="149.3" x2="822.5" y2="138.6"/>
			</g>
			<g>
				<line class="st41" x1="832.2" y1="118.2" x2="842.9" y2="128.9"/>
				<line class="st41" x1="832.2" y1="128.9" x2="842.9" y2="118.2"/>
			</g>
			<g>
				<line class="st41" x1="709.5" y1="281.1" x2="720.2" y2="291.8"/>
				<line class="st41" x1="709.5" y1="291.8" x2="720.2" y2="281.1"/>
			</g>
			<g>
				<line class="st41" x1="729.9" y1="260.7" x2="740.6" y2="271.4"/>
				<line class="st41" x1="729.9" y1="271.4" x2="740.6" y2="260.7"/>
			</g>
			<g>
				<line class="st41" x1="750.3" y1="240.3" x2="761" y2="251"/>
				<line class="st41" x1="750.3" y1="251" x2="761" y2="240.3"/>
			</g>
			<g>
				<line class="st41" x1="770.7" y1="219.9" x2="781.4" y2="230.6"/>
				<line class="st41" x1="770.7" y1="230.6" x2="781.4" y2="219.9"/>
			</g>
			<g>
				<line class="st41" x1="791.1" y1="199.5" x2="801.8" y2="210.2"/>
				<line class="st41" x1="791.1" y1="210.2" x2="801.8" y2="199.5"/>
			</g>
			<g>
				<line class="st41" x1="811.5" y1="179.1" x2="822.2" y2="189.8"/>
				<line class="st41" x1="811.5" y1="189.8" x2="822.2" y2="179.1"/>
			</g>
			<g>
				<line class="st41" x1="831.9" y1="158.7" x2="842.6" y2="169.4"/>
				<line class="st41" x1="831.9" y1="169.4" x2="842.6" y2="158.7"/>
			</g>
			<g>
				<line class="st41" x1="852.3" y1="138.3" x2="863" y2="149"/>
				<line class="st41" x1="852.3" y1="149" x2="863" y2="138.3"/>
			</g>
			<g>
				<line class="st41" x1="729.5" y1="301.2" x2="740.2" y2="311.9"/>
				<line class="st41" x1="729.5" y1="311.9" x2="740.2" y2="301.2"/>
			</g>
			<g>
				<line class="st41" x1="749.9" y1="280.8" x2="760.6" y2="291.5"/>
				<line class="st41" x1="749.9" y1="291.5" x2="760.6" y2="280.8"/>
			</g>
			<g>
				<line class="st41" x1="770.3" y1="260.4" x2="781" y2="271.1"/>
				<line class="st41" x1="770.3" y1="271.1" x2="781.1" y2="260.4"/>
			</g>
			<g>
				<line class="st41" x1="790.7" y1="240" x2="801.5" y2="250.7"/>
				<line class="st41" x1="790.7" y1="250.7" x2="801.5" y2="240"/>
			</g>
			<g>
				<line class="st41" x1="811.1" y1="219.6" x2="821.9" y2="230.3"/>
				<line class="st41" x1="811.1" y1="230.3" x2="821.9" y2="219.6"/>
			</g>
			<g>
				<line class="st41" x1="831.5" y1="199.2" x2="842.3" y2="209.9"/>
				<line class="st41" x1="831.5" y1="209.9" x2="842.3" y2="199.2"/>
			</g>
			<g>
				<line class="st41" x1="851.9" y1="178.8" x2="862.7" y2="189.5"/>
				<line class="st41" x1="852" y1="189.5" x2="862.7" y2="178.8"/>
			</g>
			<g>
				<line class="st41" x1="872.4" y1="158.4" x2="883.1" y2="169.1"/>
				<line class="st41" x1="872.4" y1="169.1" x2="883.1" y2="158.4"/>
			</g>
		</g>
		<g class="st1">
			<line class="st42" x1="334.3" y1="121.8" x2="350" y2="137.5"/>
			<line class="st42" x1="334.3" y1="137.5" x2="350" y2="121.8"/>
		</g>
		<g class="st1">
			<line class="st43" x1="541.6" y1="322.7" x2="549.6" y2="330.7"/>
			<line class="st43" x1="541.6" y1="330.7" x2="549.6" y2="322.7"/>
		</g>
		<g class="st1">
			<line class="st44" x1="89.2" y1="162.8" x2="98.8" y2="172.4"/>
			<line class="st44" x1="89.2" y1="172.4" x2="98.8" y2="162.8"/>
		</g>
		<g class="st1">
			<line class="st45" x1="133.2" y1="454.3" x2="141.9" y2="463"/>
			<line class="st45" x1="133.2" y1="463" x2="141.9" y2="454.3"/>
		</g>
		<g class="st1">
			<line class="st46" x1="567.6" y1="178.9" x2="567.6" y2="192.9"/>
			<line class="st46" x1="560.6" y1="185.9" x2="574.6" y2="185.9"/>
		</g>
		<g class="st1">
			<g>
				<line class="st47" x1="414.9" y1="100.2" x2="424.5" y2="109.8"/>
				<line class="st47" x1="414.9" y1="109.8" x2="424.5" y2="100.2"/>
			</g>
			<g>
				<line class="st47" x1="432.9" y1="118.1" x2="442.4" y2="127.7"/>
				<line class="st47" x1="432.9" y1="127.7" x2="442.4" y2="118.1"/>
			</g>
			<g>
				<line class="st47" x1="450.8" y1="136.1" x2="460.4" y2="145.6"/>
				<line class="st47" x1="450.8" y1="145.7" x2="460.4" y2="136.1"/>
			</g>
			<g>
				<line class="st47" x1="468.7" y1="154" x2="478.3" y2="163.6"/>
				<line class="st47" x1="468.7" y1="163.6" x2="478.3" y2="154"/>
			</g>
			<g>
				<line class="st47" x1="486.7" y1="171.9" x2="496.2" y2="181.5"/>
				<line class="st47" x1="486.7" y1="181.5" x2="496.2" y2="171.9"/>
			</g>
			<g>
				<line class="st47" x1="504.6" y1="189.9" x2="514.2" y2="199.5"/>
				<line class="st47" x1="504.6" y1="199.5" x2="514.2" y2="189.9"/>
			</g>
		</g>
	</g>
</g>
</svg>
